<?xml version="1.0" encoding="UTF-8"?>
<svg width="64px" height="64px" viewBox="0 0 64 64" version="1.1" xmlns="http://www.w3.org/2000/svg" xmlns:xlink="http://www.w3.org/1999/xlink">
    <title>Logos/Coloured/catalog</title>
    <defs>
        <path d="M24.8275,0.1895 C22.3815,0.1895 20.2305,1.4525 18.9975,3.363 L18.9975,3.363 C17.759,1.4525 15.608,0.1895 13.172,0.1895 L13.172,0.1895 L0.713,0.1895 C0.412,0.1895 0.1665,0.435 0.1665,0.736 L0.1665,0.736 L0.1515,3.478 L0.1515,27.8045 C0.1515,28.105 0.397,28.3505 0.698,28.3505 L0.698,28.3505 L3.44,28.3605 L17.8795,28.3605 L20.1155,28.3605 L37.287,28.3605 C37.5875,28.3605 37.8335,28.12 37.8335,27.8185 L37.8335,27.8185 L37.8485,25.072 L37.8485,0.7505 C37.8485,0.4445 37.603,0.204 37.302,0.1995 L37.302,0.1995 L34.5545,0.1895 L24.8275,0.1895 Z M21.153,7.138 C21.153,5.1085 22.7985,3.463 24.8275,3.463 L24.8275,3.463 L34.5545,3.463 C34.5625,3.463 34.57,3.4695 34.57,3.478 L34.57,3.478 L34.57,22.712 L24.833,22.712 C23.664,22.712 22.5595,23.0825 21.6675,23.763 L21.6675,23.763 C21.4845,23.8965 21.315,24.045 21.153,24.199 L21.153,24.199 L21.153,7.138 Z M10.008,7.5025 L10.008,3.463 L13.172,3.463 C15.2015,3.463 16.8465,5.1085 16.8465,7.138 L16.8465,7.138 L16.8465,24.2495 C16.6735,24.08 16.49,23.923 16.2955,23.7805 L16.2955,23.7805 C15.3715,23.0815 14.2685,22.712 13.106,22.712 L13.106,22.712 L3.4255,22.712 L3.4255,3.478 C3.4255,3.4695 3.432,3.463 3.44,3.463 L3.44,3.463 L6.007,3.463 L6.007,7.5025 C6.007,7.641 6.153,7.7315 6.277,7.6695 L6.277,7.6695 L7.9295,6.8415 C7.979,6.8165 8.0365,6.8165 8.086,6.8415 L8.086,6.8415 L9.738,7.6695 C9.765,7.683 9.7935,7.6895 9.8215,7.6895 L9.8215,7.6895 C9.919,7.6895 10.008,7.6105 10.008,7.5025 L10.008,7.5025 Z" id="path-1"></path>
    </defs>
    <g id="Guardian" stroke="none" stroke-width="1" fill="none" fill-rule="evenodd">
        <g id="Guardian---Overview-Copy" transform="translate(-52.000000, -71.000000)">
            <g id="Catalog" transform="translate(52.000000, 71.000000)">
                <path d="M64,32 C64,49.6735 49.6735,64 32,64 C14.327,64 0,49.6735 0,32 C0,14.3265 14.327,0 32,0 C49.6735,0 64,14.3265 64,32" id="Fill-477" fill="#6DB83F"></path>
                <path d="M37.82815,21.4629 L47.55465,21.4629 C47.56315,21.4629 47.56965,21.4699 47.56965,21.4779 L47.56965,42.3494 L47.56965,40.7119 L37.83365,40.7119 C36.66415,40.7119 35.55965,41.0824 34.66765,41.7634 C34.48465,41.8964 34.31565,42.0449 34.15315,42.1989 L34.15315,25.1384 C34.15315,23.1084 35.79865,21.4629 37.82815,21.4629 M21.08615,24.8414 L22.73815,25.6694 C22.86215,25.7314 23.00815,25.6409 23.00815,25.5024 L23.00815,21.4629 L26.17215,21.4629 C28.20165,21.4629 29.84665,23.1084 29.84665,25.1384 L29.84665,42.2489 C29.67365,42.0799 29.49015,41.9229 29.29565,41.7804 C28.37165,41.0814 27.26865,40.7119 26.10665,40.7119 L16.42515,40.7119 L16.42515,21.4779 C16.42515,21.4699 16.43215,21.4629 16.44065,21.4629 L19.00715,21.4629 L19.00715,25.5024 C19.00715,25.6409 19.15315,25.7314 19.27715,25.6694 L20.92965,24.8414 C20.97915,24.8164 21.03665,24.8164 21.08615,24.8414 M50.30215,18.1994 L47.55465,18.1894 L37.82815,18.1894 C35.38165,18.1894 33.23115,19.4524 31.99765,21.3629 C30.75915,19.4524 28.60865,18.1894 26.17215,18.1894 L13.71315,18.1894 C13.41215,18.1894 13.16665,18.4349 13.16665,18.7359 L13.15165,21.4779 L13.15165,45.8044 C13.15165,46.1049 13.39715,46.3504 13.69815,46.3504 L16.44065,46.3604 L30.87965,46.3604 L33.11565,46.3604 L50.28715,46.3604 C50.58815,46.3604 50.83415,46.1199 50.83415,45.8189 L50.84865,43.0719 L50.84865,18.7504 C50.84865,18.4449 50.60315,18.2039 50.30215,18.1994" id="Fill-478" fill="#A84600"></path>
                <path d="M22.7383,25.66945 L21.0858,24.84145 C21.0368,24.81645 20.9788,24.81645 20.9298,24.84145 L19.2773,25.66945 C19.1533,25.73145 19.0073,25.64145 19.0073,25.50245 L19.0073,21.46295 L16.4403,21.46295 C16.4323,21.46295 16.4253,21.46995 16.4253,21.47795 L16.4253,40.71195 L26.1063,40.71195 C27.2688,40.71195 28.3718,41.08145 29.2953,41.78045 C29.4903,41.92295 29.6738,42.07995 29.8468,42.24895 L29.8468,25.13845 C29.8468,23.10845 28.2018,21.46295 26.1718,21.46295 L23.0083,21.46295 L23.0083,25.50245 C23.0083,25.64145 22.8623,25.73145 22.7383,25.66945" id="Fill-479" fill="#FFE985"></path>
                <path d="M47.56985,21.47805 C47.56985,21.46955 47.56285,21.46305 47.55535,21.46305 L37.82835,21.46305 C35.79885,21.46305 34.15335,23.10855 34.15335,25.13805 L34.15335,42.19855 C34.31585,42.04505 34.48435,41.89655 34.66735,41.76305 C35.55935,41.08255 36.66385,40.71205 37.83335,40.71205 L47.56985,40.71205" id="Fill-480" fill="#FFE985"></path>
                <path d="M26.9668,26.00145 C27.2429424,26.00145 27.4668,26.2253076 27.4668,26.50145 C27.4668,26.7381435 27.3023332,26.9364236 27.0814454,26.9882446 L26.9668,27.00145 L18.4738,27.00145 C18.1976576,27.00145 17.9738,26.7775924 17.9738,26.50145 C17.9738,26.2647565 18.1382668,26.0664764 18.3591546,26.0146554 L18.4738,26.00145 L26.9668,26.00145 Z" id="Stroke-482" fill="#FFC41C" fill-rule="nonzero"></path>
                <path d="M26.9668,28.50145 C27.2429424,28.50145 27.4668,28.7253076 27.4668,29.00145 C27.4668,29.2381435 27.3023332,29.4364236 27.0814454,29.4882446 L26.9668,29.50145 L18.4738,29.50145 C18.1976576,29.50145 17.9738,29.2775924 17.9738,29.00145 C17.9738,28.7647565 18.1382668,28.5664764 18.3591546,28.5146554 L18.4738,28.50145 L26.9668,28.50145 Z" id="Stroke-483" fill="#FFC41C" fill-rule="nonzero"></path>
                <path d="M26.9668,31.00145 C27.2429424,31.00145 27.4668,31.2253076 27.4668,31.50145 C27.4668,31.7381435 27.3023332,31.9364236 27.0814454,31.9882446 L26.9668,32.00145 L18.4738,32.00145 C18.1976576,32.00145 17.9738,31.7775924 17.9738,31.50145 C17.9738,31.2647565 18.1382668,31.0664764 18.3591546,31.0146554 L18.4738,31.00145 L26.9668,31.00145 Z" id="Stroke-484" fill="#FFC41C" fill-rule="nonzero"></path>
                <path d="M26.9668,33.50145 C27.2429424,33.50145 27.4668,33.7253076 27.4668,34.00145 C27.4668,34.2381435 27.3023332,34.4364236 27.0814454,34.4882446 L26.9668,34.50145 L18.4738,34.50145 C18.1976576,34.50145 17.9738,34.2775924 17.9738,34.00145 C17.9738,33.7647565 18.1382668,33.5664764 18.3591546,33.5146554 L18.4738,33.50145 L26.9668,33.50145 Z" id="Stroke-485" fill="#FFC41C" fill-rule="nonzero"></path>
                <path d="M22.7168,36.00145 C22.9929424,36.00145 23.2168,36.2253076 23.2168,36.50145 C23.2168,36.7381435 23.0523332,36.9364236 22.8314454,36.9882446 L22.7168,37.00145 L18.4738,37.00145 C18.1976576,37.00145 17.9738,36.7775924 17.9738,36.50145 C17.9738,36.2647565 18.1382668,36.0664764 18.3591546,36.0146554 L18.4738,36.00145 L22.7168,36.00145 Z" id="Stroke-486" fill="#FFC41C" fill-rule="nonzero"></path>
                <path d="M44.7168,26.00145 C44.9929424,26.00145 45.2168,26.2253076 45.2168,26.50145 C45.2168,26.7381435 45.0523332,26.9364236 44.8314454,26.9882446 L44.7168,27.00145 L36.2238,27.00145 C35.9476576,27.00145 35.7238,26.7775924 35.7238,26.50145 C35.7238,26.2647565 35.8882668,26.0664764 36.1091546,26.0146554 L36.2238,26.00145 L44.7168,26.00145 Z" id="Stroke-487" fill="#FFC41C" fill-rule="nonzero"></path>
                <path d="M44.7168,28.50145 C44.9929424,28.50145 45.2168,28.7253076 45.2168,29.00145 C45.2168,29.2381435 45.0523332,29.4364236 44.8314454,29.4882446 L44.7168,29.50145 L36.2238,29.50145 C35.9476576,29.50145 35.7238,29.2775924 35.7238,29.00145 C35.7238,28.7647565 35.8882668,28.5664764 36.1091546,28.5146554 L36.2238,28.50145 L44.7168,28.50145 Z" id="Stroke-488" fill="#FFC41C" fill-rule="nonzero"></path>
                <path d="M40.20655,31.00145 C40.4826924,31.00145 40.70655,31.2253076 40.70655,31.50145 C40.70655,31.7381435 40.5420832,31.9364236 40.3211954,31.9882446 L40.20655,32.00145 L36.22355,32.00145 C35.9474076,32.00145 35.72355,31.7775924 35.72355,31.50145 C35.72355,31.2647565 35.8880168,31.0664764 36.1089046,31.0146554 L36.22355,31.00145 L40.20655,31.00145 Z" id="Stroke-489" fill="#FFC41C" fill-rule="nonzero"></path>
                <path d="M44.7168,33.50145 C44.9929424,33.50145 45.2168,33.7253076 45.2168,34.00145 C45.2168,34.2381435 45.0523332,34.4364236 44.8314454,34.4882446 L44.7168,34.50145 L36.2238,34.50145 C35.9476576,34.50145 35.7238,34.2775924 35.7238,34.00145 C35.7238,33.7647565 35.8882668,33.5664764 36.1091546,33.5146554 L36.2238,33.50145 L44.7168,33.50145 Z" id="Stroke-490" fill="#FFC41C" fill-rule="nonzero"></path>
                <path d="M42.4668,36.00145 C42.7429424,36.00145 42.9668,36.2253076 42.9668,36.50145 C42.9668,36.7381435 42.8023332,36.9364236 42.5814454,36.9882446 L42.4668,37.00145 L36.2238,37.00145 C35.9476576,37.00145 35.7238,36.7775924 35.7238,36.50145 C35.7238,36.2647565 35.8882668,36.0664764 36.1091546,36.0146554 L36.2238,36.00145 L42.4668,36.00145 Z" id="Stroke-491" fill="#FFC41C" fill-rule="nonzero"></path>
                <g id="Group-495" transform="translate(13.000200, 18.000000)">
                    <mask id="mask-2" fill="white">
                        <use xlink:href="#path-1"></use>
                    </mask>
                    <g id="Clip-494"></g>
                    <polygon id="Fill-493" fill="#EE2737" mask="url(#mask-2)" points="6.007 7.9655 10.008 7.9655 10.008 0.1895 6.007 0.1895"></polygon>
                </g>
            </g>
        </g>
    </g>
</svg>