<?xml version="1.0" encoding="UTF-8"?>
<svg width="113px" height="128px" viewBox="0 0 113 128" version="1.1" xmlns="http://www.w3.org/2000/svg" xmlns:xlink="http://www.w3.org/1999/xlink">
    <title>noun-hexagon-1408192</title>
    <g id="Home" stroke="none" stroke-width="1" fill="none" fill-rule="evenodd">
        <g transform="translate(-709.000000, -536.000000)" fill="#0A3793" fill-rule="nonzero" id="noun-hexagon-1408192">
            <g transform="translate(709.000000, 536.000000)">
                <path d="M56.5,127.997975 C55.1369727,127.997975 53.9250682,127.695349 52.7131367,126.93931 L3.78686327,98.8226721 C1.51517809,97.4624326 0,95.0435542 0,92.3231291 L0,35.7875248 C0,33.0670997 1.51517809,30.6481943 3.78686327,29.2879818 L52.7131367,1.02017964 C54.9848219,-0.340059879 58.0152863,-0.340059879 60.2868633,1.02017964 L109.213137,29.2879818 C111.484822,30.6482213 113,33.0670997 113,35.7875248 L113,92.1719644 C113,94.8923895 111.484822,97.3112949 109.213137,98.6715074 L60.2868633,127.093174 C59.0749318,127.698426 57.8630273,128 56.5,128 L56.5,127.997975 Z M15.1474531,87.9393253 L56.5,111.823351 L97.8525469,87.9393253 L97.8525469,40.1712746 L56.5,16.2872492 L15.1474531,40.1712746 L15.1474531,87.9393253 Z" id="Shape"></path>
                <polygon id="Path" points="30 79 30 49 56.5 34 83 49 83 79 56.5 94"></polygon>
            </g>
        </g>
    </g>
</svg>